<mxfile host="app.diagrams.net" agent="Mozilla/5.0 (Windows NT 10.0; Win64; x64) AppleWebKit/537.36 (KHTML, like Gecko) Chrome/131.0.0.0 Safari/537.36 Edg/131.0.0.0" version="25.0.1" pages="3">
  <diagram name="Page-1" id="fEfEK3lMf5IORS8Htr2S">
    <mxGraphModel dx="926" dy="209" grid="0" gridSize="10" guides="1" tooltips="1" connect="1" arrows="1" fold="1" page="0" pageScale="1" pageWidth="850" pageHeight="1100" math="0" shadow="0">
      <root>
        <mxCell id="0" />
        <mxCell id="1" parent="0" />
        <mxCell id="kqiIdmSvPIW-TrbX2fSC-3" style="edgeStyle=none;curved=1;rounded=0;orthogonalLoop=1;jettySize=auto;html=1;fontSize=12;startSize=8;endSize=8;" parent="1" source="kqiIdmSvPIW-TrbX2fSC-1" target="kqiIdmSvPIW-TrbX2fSC-2" edge="1">
          <mxGeometry relative="1" as="geometry" />
        </mxCell>
        <mxCell id="kqiIdmSvPIW-TrbX2fSC-1" value="&lt;font style=&quot;font-size: 20px;&quot;&gt;Mulai&lt;/font&gt;" style="ellipse;whiteSpace=wrap;html=1;" parent="1" vertex="1">
          <mxGeometry x="-366" y="488" width="120" height="80" as="geometry" />
        </mxCell>
        <mxCell id="kqiIdmSvPIW-TrbX2fSC-5" style="edgeStyle=none;curved=1;rounded=0;orthogonalLoop=1;jettySize=auto;html=1;fontSize=12;startSize=8;endSize=8;" parent="1" source="kqiIdmSvPIW-TrbX2fSC-2" target="kqiIdmSvPIW-TrbX2fSC-4" edge="1">
          <mxGeometry relative="1" as="geometry" />
        </mxCell>
        <mxCell id="kqiIdmSvPIW-TrbX2fSC-2" value="&lt;font style=&quot;font-size: 20px;&quot;&gt;Studi&lt;/font&gt;&lt;div&gt;&lt;font style=&quot;font-size: 20px;&quot;&gt;Literatur&lt;/font&gt;&lt;/div&gt;" style="rounded=0;whiteSpace=wrap;html=1;" parent="1" vertex="1">
          <mxGeometry x="-191" y="498" width="143" height="60" as="geometry" />
        </mxCell>
        <mxCell id="kqiIdmSvPIW-TrbX2fSC-14" style="edgeStyle=none;curved=1;rounded=0;orthogonalLoop=1;jettySize=auto;html=1;fontSize=12;startSize=8;endSize=8;" parent="1" source="kqiIdmSvPIW-TrbX2fSC-4" target="kqiIdmSvPIW-TrbX2fSC-6" edge="1">
          <mxGeometry relative="1" as="geometry" />
        </mxCell>
        <mxCell id="kqiIdmSvPIW-TrbX2fSC-4" value="&lt;font style=&quot;font-size: 20px;&quot;&gt;Perancangan&lt;/font&gt;&lt;div&gt;&lt;font style=&quot;font-size: 20px;&quot;&gt;Sistem&lt;/font&gt;&lt;/div&gt;" style="rounded=0;whiteSpace=wrap;html=1;" parent="1" vertex="1">
          <mxGeometry x="7" y="498" width="144" height="60" as="geometry" />
        </mxCell>
        <mxCell id="kqiIdmSvPIW-TrbX2fSC-9" style="edgeStyle=none;curved=1;rounded=0;orthogonalLoop=1;jettySize=auto;html=1;entryX=0;entryY=0.5;entryDx=0;entryDy=0;fontSize=12;startSize=8;endSize=8;" parent="1" source="kqiIdmSvPIW-TrbX2fSC-6" target="kqiIdmSvPIW-TrbX2fSC-8" edge="1">
          <mxGeometry relative="1" as="geometry" />
        </mxCell>
        <mxCell id="kqiIdmSvPIW-TrbX2fSC-6" value="&lt;font style=&quot;font-size: 20px;&quot;&gt;Implementasi&lt;/font&gt;" style="rounded=0;whiteSpace=wrap;html=1;" parent="1" vertex="1">
          <mxGeometry x="214" y="498" width="150" height="60" as="geometry" />
        </mxCell>
        <mxCell id="kqiIdmSvPIW-TrbX2fSC-11" style="edgeStyle=none;curved=1;rounded=0;orthogonalLoop=1;jettySize=auto;html=1;entryX=0;entryY=0.5;entryDx=0;entryDy=0;fontSize=12;startSize=8;endSize=8;" parent="1" source="kqiIdmSvPIW-TrbX2fSC-8" target="kqiIdmSvPIW-TrbX2fSC-10" edge="1">
          <mxGeometry relative="1" as="geometry" />
        </mxCell>
        <mxCell id="kqiIdmSvPIW-TrbX2fSC-8" value="&lt;font style=&quot;font-size: 20px;&quot;&gt;Pengujjian&lt;/font&gt;" style="rounded=0;whiteSpace=wrap;html=1;" parent="1" vertex="1">
          <mxGeometry x="407" y="498" width="120" height="60" as="geometry" />
        </mxCell>
        <mxCell id="kqiIdmSvPIW-TrbX2fSC-13" style="edgeStyle=none;curved=1;rounded=0;orthogonalLoop=1;jettySize=auto;html=1;fontSize=12;startSize=8;endSize=8;" parent="1" source="kqiIdmSvPIW-TrbX2fSC-10" target="kqiIdmSvPIW-TrbX2fSC-12" edge="1">
          <mxGeometry relative="1" as="geometry" />
        </mxCell>
        <mxCell id="kqiIdmSvPIW-TrbX2fSC-10" value="&lt;font style=&quot;font-size: 20px;&quot;&gt;Analisis dan&lt;/font&gt;&lt;div&gt;&lt;font style=&quot;font-size: 20px;&quot;&gt;Evaluasi&lt;/font&gt;&lt;/div&gt;" style="rounded=0;whiteSpace=wrap;html=1;" parent="1" vertex="1">
          <mxGeometry x="591" y="498" width="156" height="60" as="geometry" />
        </mxCell>
        <mxCell id="kqiIdmSvPIW-TrbX2fSC-12" value="&lt;font style=&quot;font-size: 20px;&quot;&gt;Selesai&lt;/font&gt;" style="ellipse;whiteSpace=wrap;html=1;" parent="1" vertex="1">
          <mxGeometry x="803" y="488" width="120" height="80" as="geometry" />
        </mxCell>
      </root>
    </mxGraphModel>
  </diagram>
  <diagram id="XebYH0O7Da_QA7DbEOIz" name="Page-2">
    <mxGraphModel dx="3364" dy="1230" grid="0" gridSize="10" guides="1" tooltips="1" connect="1" arrows="1" fold="1" page="0" pageScale="1" pageWidth="850" pageHeight="1100" math="0" shadow="0">
      <root>
        <mxCell id="0" />
        <mxCell id="1" parent="0" />
        <mxCell id="PWRWyr70yXMViiYPrIpg-1" style="edgeStyle=orthogonalEdgeStyle;rounded=0;orthogonalLoop=1;jettySize=auto;html=1;entryX=0;entryY=0.5;entryDx=0;entryDy=0;" edge="1" parent="1" source="PWRWyr70yXMViiYPrIpg-2" target="PWRWyr70yXMViiYPrIpg-4">
          <mxGeometry relative="1" as="geometry">
            <mxPoint x="-480" y="590" as="targetPoint" />
          </mxGeometry>
        </mxCell>
        <mxCell id="PWRWyr70yXMViiYPrIpg-2" value="&lt;font style=&quot;font-size: 20px;&quot;&gt;Mulai&lt;/font&gt;" style="ellipse;whiteSpace=wrap;html=1;" vertex="1" parent="1">
          <mxGeometry x="-640" y="390" width="160" height="120" as="geometry" />
        </mxCell>
        <mxCell id="PWRWyr70yXMViiYPrIpg-3" style="edgeStyle=orthogonalEdgeStyle;rounded=0;orthogonalLoop=1;jettySize=auto;html=1;entryX=0;entryY=0.5;entryDx=0;entryDy=0;" edge="1" parent="1" source="PWRWyr70yXMViiYPrIpg-4" target="PWRWyr70yXMViiYPrIpg-12">
          <mxGeometry relative="1" as="geometry" />
        </mxCell>
        <mxCell id="PWRWyr70yXMViiYPrIpg-4" value="&lt;font style=&quot;font-size: 20px;&quot;&gt;Inisialisasi Sistem&lt;/font&gt;" style="rounded=0;whiteSpace=wrap;html=1;" vertex="1" parent="1">
          <mxGeometry x="-440" y="550" width="200" height="80" as="geometry" />
        </mxCell>
        <mxCell id="_tGlB0ukCoVsSV-JaNyE-14" style="edgeStyle=none;curved=1;rounded=0;orthogonalLoop=1;jettySize=auto;html=1;entryX=0;entryY=0.5;entryDx=0;entryDy=0;fontSize=12;startSize=8;endSize=8;" edge="1" parent="1" source="PWRWyr70yXMViiYPrIpg-10" target="PWRWyr70yXMViiYPrIpg-36">
          <mxGeometry relative="1" as="geometry" />
        </mxCell>
        <mxCell id="PWRWyr70yXMViiYPrIpg-10" value="&lt;span style=&quot;font-size: 20px;&quot;&gt;Kelembapan&lt;/span&gt;&lt;div&gt;&lt;span style=&quot;font-size: 20px;&quot;&gt;Cukup?&lt;/span&gt;&lt;/div&gt;" style="rhombus;whiteSpace=wrap;html=1;" vertex="1" parent="1">
          <mxGeometry x="120" y="510" width="160" height="160" as="geometry" />
        </mxCell>
        <mxCell id="PWRWyr70yXMViiYPrIpg-11" style="edgeStyle=orthogonalEdgeStyle;rounded=0;orthogonalLoop=1;jettySize=auto;html=1;" edge="1" parent="1" source="PWRWyr70yXMViiYPrIpg-12" target="PWRWyr70yXMViiYPrIpg-10">
          <mxGeometry relative="1" as="geometry" />
        </mxCell>
        <mxCell id="PWRWyr70yXMViiYPrIpg-12" value="&lt;span style=&quot;color: rgb(0, 0, 0); font-family: Helvetica; font-style: normal; font-variant-ligatures: normal; font-variant-caps: normal; font-weight: 400; letter-spacing: normal; orphans: 2; text-align: center; text-indent: 0px; text-transform: none; widows: 2; word-spacing: 0px; -webkit-text-stroke-width: 0px; white-space: normal; background-color: rgb(251, 251, 251); text-decoration-thickness: initial; text-decoration-style: initial; text-decoration-color: initial; float: none; display: inline !important;&quot;&gt;&lt;font style=&quot;font-size: 20px;&quot;&gt;Baca Data&lt;/font&gt;&lt;/span&gt;&lt;div&gt;&lt;span style=&quot;color: rgb(0, 0, 0); font-family: Helvetica; font-style: normal; font-variant-ligatures: normal; font-variant-caps: normal; font-weight: 400; letter-spacing: normal; orphans: 2; text-align: center; text-indent: 0px; text-transform: none; widows: 2; word-spacing: 0px; -webkit-text-stroke-width: 0px; white-space: normal; background-color: rgb(251, 251, 251); text-decoration-thickness: initial; text-decoration-style: initial; text-decoration-color: initial; float: none; display: inline !important;&quot;&gt;&lt;font style=&quot;font-size: 20px;&quot;&gt;Sensor&lt;/font&gt;&lt;/span&gt;&lt;/div&gt;" style="shape=parallelogram;perimeter=parallelogramPerimeter;whiteSpace=wrap;html=1;fixedSize=1;" vertex="1" parent="1">
          <mxGeometry x="-160" y="550" width="200" height="80" as="geometry" />
        </mxCell>
        <mxCell id="PWRWyr70yXMViiYPrIpg-15" value="&lt;font face=&quot;Helvetica&quot; style=&quot;font-size: 20px;&quot;&gt;Matikan Solenoid Valve dan Pompa&lt;/font&gt;" style="rounded=0;whiteSpace=wrap;html=1;" vertex="1" parent="1">
          <mxGeometry x="1036" y="384" width="200" height="80" as="geometry" />
        </mxCell>
        <mxCell id="PWRWyr70yXMViiYPrIpg-16" value="" style="edgeStyle=orthogonalEdgeStyle;rounded=0;orthogonalLoop=1;jettySize=auto;html=1;" edge="1" parent="1" source="PWRWyr70yXMViiYPrIpg-17" target="PWRWyr70yXMViiYPrIpg-21">
          <mxGeometry relative="1" as="geometry" />
        </mxCell>
        <mxCell id="PWRWyr70yXMViiYPrIpg-17" value="&lt;span style=&quot;font-size: 20px;&quot;&gt;Apakah suhu&amp;nbsp;&lt;/span&gt;&lt;div&gt;&lt;span style=&quot;font-size: 20px;&quot;&gt;diatas 30&amp;nbsp;&lt;/span&gt;&lt;/div&gt;&lt;div&gt;&lt;span style=&quot;font-size: 20px;&quot;&gt;derajat celcius?&lt;/span&gt;&lt;/div&gt;" style="rhombus;whiteSpace=wrap;html=1;" vertex="1" parent="1">
          <mxGeometry x="498" y="737" width="237.5" height="170" as="geometry" />
        </mxCell>
        <mxCell id="PWRWyr70yXMViiYPrIpg-21" value="&lt;font style=&quot;font-size: 20px;&quot;&gt;Aktifkan Solenoid Valve dan Pompa&lt;/font&gt;" style="whiteSpace=wrap;html=1;" vertex="1" parent="1">
          <mxGeometry x="953" y="782" width="310" height="80" as="geometry" />
        </mxCell>
        <mxCell id="PWRWyr70yXMViiYPrIpg-31" style="edgeStyle=orthogonalEdgeStyle;rounded=0;orthogonalLoop=1;jettySize=auto;html=1;entryX=0;entryY=0.5;entryDx=0;entryDy=0;" edge="1" parent="1" source="PWRWyr70yXMViiYPrIpg-34" target="PWRWyr70yXMViiYPrIpg-35">
          <mxGeometry relative="1" as="geometry" />
        </mxCell>
        <mxCell id="PWRWyr70yXMViiYPrIpg-34" value="&lt;font style=&quot;font-size: 20px;&quot;&gt;Matikan Sistem&lt;/font&gt;" style="whiteSpace=wrap;html=1;" vertex="1" parent="1">
          <mxGeometry x="1263" y="565" width="170" height="70" as="geometry" />
        </mxCell>
        <mxCell id="PWRWyr70yXMViiYPrIpg-35" value="&lt;font style=&quot;font-size: 20px;&quot;&gt;Selesai&lt;/font&gt;" style="ellipse;whiteSpace=wrap;html=1;" vertex="1" parent="1">
          <mxGeometry x="1503" y="560" width="120" height="80" as="geometry" />
        </mxCell>
        <mxCell id="PWRWyr70yXMViiYPrIpg-36" value="&lt;span style=&quot;font-size: 20px;&quot;&gt;Apakah suhu&amp;nbsp;&lt;/span&gt;&lt;div&gt;&lt;span style=&quot;font-size: 20px;&quot;&gt;diatas 30&amp;nbsp;&lt;/span&gt;&lt;/div&gt;&lt;div&gt;&lt;span style=&quot;font-size: 20px;&quot;&gt;derajat celcius?&lt;/span&gt;&lt;/div&gt;" style="rhombus;whiteSpace=wrap;html=1;" vertex="1" parent="1">
          <mxGeometry x="429" y="356" width="237.5" height="170" as="geometry" />
        </mxCell>
      </root>
    </mxGraphModel>
  </diagram>
  <diagram id="v3_L0HMxVUmAAvEsDXfx" name="Page-3">
    <mxGraphModel dx="4323" dy="2050" grid="0" gridSize="10" guides="1" tooltips="1" connect="1" arrows="1" fold="1" page="1" pageScale="1" pageWidth="850" pageHeight="1100" math="0" shadow="0">
      <root>
        <mxCell id="0" />
        <mxCell id="1" parent="0" />
        <mxCell id="MIV511B591KRfzBowYcn-1" style="edgeStyle=orthogonalEdgeStyle;rounded=0;orthogonalLoop=1;jettySize=auto;html=1;entryX=0;entryY=0.5;entryDx=0;entryDy=0;strokeWidth=2;endArrow=block;endFill=1;" parent="1" source="MIV511B591KRfzBowYcn-2" target="MIV511B591KRfzBowYcn-4" edge="1">
          <mxGeometry relative="1" as="geometry">
            <mxPoint x="-480" y="590" as="targetPoint" />
          </mxGeometry>
        </mxCell>
        <mxCell id="MIV511B591KRfzBowYcn-2" value="&lt;font style=&quot;font-size: 20px;&quot;&gt;Mulai&lt;/font&gt;" style="ellipse;whiteSpace=wrap;html=1;strokeWidth=2;" parent="1" vertex="1">
          <mxGeometry x="-802" y="530" width="160" height="120" as="geometry" />
        </mxCell>
        <mxCell id="MIV511B591KRfzBowYcn-3" style="edgeStyle=orthogonalEdgeStyle;rounded=0;orthogonalLoop=1;jettySize=auto;html=1;entryX=0;entryY=0.5;entryDx=0;entryDy=0;strokeWidth=2;endArrow=block;endFill=1;" parent="1" source="MIV511B591KRfzBowYcn-4" target="MIV511B591KRfzBowYcn-8" edge="1">
          <mxGeometry relative="1" as="geometry" />
        </mxCell>
        <mxCell id="MIV511B591KRfzBowYcn-4" value="&lt;font style=&quot;font-size: 20px;&quot;&gt;Inisialisasi Sistem&lt;/font&gt;" style="rounded=0;whiteSpace=wrap;html=1;strokeWidth=2;" parent="1" vertex="1">
          <mxGeometry x="-440" y="550" width="200" height="80" as="geometry" />
        </mxCell>
        <mxCell id="yj4hxWxQVgTyFjm1ZIjk-18" style="edgeStyle=orthogonalEdgeStyle;rounded=0;orthogonalLoop=1;jettySize=auto;html=1;entryX=0;entryY=0.5;entryDx=0;entryDy=0;fontSize=12;startSize=8;endSize=8;exitX=0.5;exitY=1;exitDx=0;exitDy=0;strokeWidth=2;endArrow=block;endFill=1;" parent="1" source="MIV511B591KRfzBowYcn-6" target="yj4hxWxQVgTyFjm1ZIjk-13" edge="1">
          <mxGeometry relative="1" as="geometry" />
        </mxCell>
        <mxCell id="yj4hxWxQVgTyFjm1ZIjk-29" value="Tidak" style="edgeLabel;html=1;align=center;verticalAlign=middle;resizable=0;points=[];fontSize=20;" parent="yj4hxWxQVgTyFjm1ZIjk-18" vertex="1" connectable="0">
          <mxGeometry x="-0.3205" y="-1" relative="1" as="geometry">
            <mxPoint as="offset" />
          </mxGeometry>
        </mxCell>
        <mxCell id="s51fXqzdxu3SoiSa7u-e-1" style="edgeStyle=orthogonalEdgeStyle;rounded=0;orthogonalLoop=1;jettySize=auto;html=1;entryX=0.5;entryY=0;entryDx=0;entryDy=0;fontSize=12;startSize=8;endSize=8;strokeWidth=2;" parent="1" source="MIV511B591KRfzBowYcn-6" target="yj4hxWxQVgTyFjm1ZIjk-21" edge="1">
          <mxGeometry relative="1" as="geometry" />
        </mxCell>
        <mxCell id="s51fXqzdxu3SoiSa7u-e-2" value="&lt;font style=&quot;font-size: 20px;&quot;&gt;Ya&lt;/font&gt;" style="edgeLabel;html=1;align=center;verticalAlign=middle;resizable=0;points=[];fontSize=12;" parent="s51fXqzdxu3SoiSa7u-e-1" vertex="1" connectable="0">
          <mxGeometry x="-0.352" y="2" relative="1" as="geometry">
            <mxPoint x="-1" as="offset" />
          </mxGeometry>
        </mxCell>
        <mxCell id="MIV511B591KRfzBowYcn-6" value="&lt;span style=&quot;font-size: 20px;&quot;&gt;Kelembapan&lt;/span&gt;&lt;div&gt;&lt;span style=&quot;font-size: 20px;&quot;&gt;di atas 55% dan&amp;nbsp;&lt;/span&gt;&lt;/div&gt;&lt;div&gt;&lt;span style=&quot;font-size: 20px;&quot;&gt;suhu diatas 30%&amp;nbsp;&lt;/span&gt;&lt;/div&gt;&lt;div&gt;&lt;span style=&quot;font-size: 20px;&quot;&gt;derajat celcius?&lt;/span&gt;&lt;/div&gt;" style="rhombus;whiteSpace=wrap;html=1;strokeWidth=2;" parent="1" vertex="1">
          <mxGeometry x="240" y="474.25" width="313" height="231.5" as="geometry" />
        </mxCell>
        <mxCell id="yj4hxWxQVgTyFjm1ZIjk-14" style="edgeStyle=orthogonalEdgeStyle;rounded=0;orthogonalLoop=1;jettySize=auto;html=1;fontSize=12;startSize=8;endSize=8;strokeWidth=2;endArrow=block;endFill=1;" parent="1" source="MIV511B591KRfzBowYcn-8" target="MIV511B591KRfzBowYcn-6" edge="1">
          <mxGeometry relative="1" as="geometry" />
        </mxCell>
        <mxCell id="MIV511B591KRfzBowYcn-8" value="&lt;span style=&quot;color: rgb(0, 0, 0); font-family: Helvetica; font-style: normal; font-variant-ligatures: normal; font-variant-caps: normal; font-weight: 400; letter-spacing: normal; orphans: 2; text-align: center; text-indent: 0px; text-transform: none; widows: 2; word-spacing: 0px; -webkit-text-stroke-width: 0px; white-space: normal; background-color: rgb(251, 251, 251); text-decoration-thickness: initial; text-decoration-style: initial; text-decoration-color: initial; float: none; display: inline !important;&quot;&gt;&lt;font style=&quot;font-size: 20px;&quot;&gt;Baca Data&lt;/font&gt;&lt;/span&gt;&lt;div&gt;&lt;span style=&quot;color: rgb(0, 0, 0); font-family: Helvetica; font-style: normal; font-variant-ligatures: normal; font-variant-caps: normal; font-weight: 400; letter-spacing: normal; orphans: 2; text-align: center; text-indent: 0px; text-transform: none; widows: 2; word-spacing: 0px; -webkit-text-stroke-width: 0px; white-space: normal; background-color: rgb(251, 251, 251); text-decoration-thickness: initial; text-decoration-style: initial; text-decoration-color: initial; float: none; display: inline !important;&quot;&gt;&lt;font style=&quot;font-size: 20px;&quot;&gt;Sensor&lt;/font&gt;&lt;/span&gt;&lt;/div&gt;" style="shape=parallelogram;perimeter=parallelogramPerimeter;whiteSpace=wrap;html=1;fixedSize=1;strokeWidth=2;" parent="1" vertex="1">
          <mxGeometry x="-160" y="550" width="200" height="80" as="geometry" />
        </mxCell>
        <mxCell id="yj4hxWxQVgTyFjm1ZIjk-2" value="&lt;font face=&quot;Helvetica&quot; style=&quot;font-size: 20px;&quot;&gt;Aktifkan Pompa DC Mini dan Buzzer&lt;/font&gt;" style="rounded=0;whiteSpace=wrap;html=1;fontFamily=Verdana;strokeWidth=2;" parent="1" vertex="1">
          <mxGeometry x="1610" y="1191.75" width="257" height="99" as="geometry" />
        </mxCell>
        <mxCell id="yj4hxWxQVgTyFjm1ZIjk-20" style="edgeStyle=orthogonalEdgeStyle;rounded=0;orthogonalLoop=1;jettySize=auto;html=1;entryX=0;entryY=0.5;entryDx=0;entryDy=0;fontSize=12;startSize=8;endSize=8;exitX=0.5;exitY=1;exitDx=0;exitDy=0;strokeWidth=2;endArrow=block;endFill=1;" parent="1" source="yj4hxWxQVgTyFjm1ZIjk-13" target="yj4hxWxQVgTyFjm1ZIjk-19" edge="1">
          <mxGeometry relative="1" as="geometry" />
        </mxCell>
        <mxCell id="yj4hxWxQVgTyFjm1ZIjk-31" value="Tidak" style="edgeLabel;html=1;align=center;verticalAlign=middle;resizable=0;points=[];fontSize=20;" parent="yj4hxWxQVgTyFjm1ZIjk-20" vertex="1" connectable="0">
          <mxGeometry x="-0.3744" y="-3" relative="1" as="geometry">
            <mxPoint y="-1" as="offset" />
          </mxGeometry>
        </mxCell>
        <mxCell id="yj4hxWxQVgTyFjm1ZIjk-24" style="edgeStyle=orthogonalEdgeStyle;rounded=0;orthogonalLoop=1;jettySize=auto;html=1;entryX=0;entryY=0.5;entryDx=0;entryDy=0;fontSize=12;startSize=8;endSize=8;strokeWidth=2;endArrow=block;endFill=1;" parent="1" source="yj4hxWxQVgTyFjm1ZIjk-13" target="yj4hxWxQVgTyFjm1ZIjk-21" edge="1">
          <mxGeometry relative="1" as="geometry" />
        </mxCell>
        <mxCell id="yj4hxWxQVgTyFjm1ZIjk-30" value="Ya" style="edgeLabel;html=1;align=center;verticalAlign=middle;resizable=0;points=[];fontSize=20;" parent="yj4hxWxQVgTyFjm1ZIjk-24" vertex="1" connectable="0">
          <mxGeometry x="-0.1284" y="2" relative="1" as="geometry">
            <mxPoint x="1" as="offset" />
          </mxGeometry>
        </mxCell>
        <mxCell id="yj4hxWxQVgTyFjm1ZIjk-13" value="&lt;span style=&quot;font-size: 20px;&quot;&gt;Apakah&amp;nbsp;&lt;/span&gt;&lt;span style=&quot;font-size: 20px; background-color: initial;&quot;&gt;kelembapan&amp;nbsp;&lt;/span&gt;&lt;div&gt;&lt;div&gt;&lt;span style=&quot;font-size: 20px;&quot;&gt;diatas 55% dan&amp;nbsp;&lt;/span&gt;&lt;/div&gt;&lt;div&gt;&lt;span style=&quot;font-size: 20px;&quot;&gt;suhu dibawah&amp;nbsp;&lt;/span&gt;&lt;span style=&quot;font-size: 20px; background-color: initial;&quot;&gt;30%?&lt;/span&gt;&lt;/div&gt;&lt;/div&gt;" style="rhombus;whiteSpace=wrap;html=1;strokeWidth=2;" parent="1" vertex="1">
          <mxGeometry x="557.75" y="788.75" width="352.5" height="281" as="geometry" />
        </mxCell>
        <mxCell id="yj4hxWxQVgTyFjm1ZIjk-25" style="edgeStyle=orthogonalEdgeStyle;rounded=0;orthogonalLoop=1;jettySize=auto;html=1;entryX=0;entryY=0.5;entryDx=0;entryDy=0;fontSize=12;startSize=8;endSize=8;exitX=1;exitY=0.5;exitDx=0;exitDy=0;strokeWidth=2;endArrow=block;endFill=1;" parent="1" source="yj4hxWxQVgTyFjm1ZIjk-19" target="yj4hxWxQVgTyFjm1ZIjk-2" edge="1">
          <mxGeometry relative="1" as="geometry">
            <Array as="points">
              <mxPoint x="1426" y="1241" />
              <mxPoint x="1426" y="1241" />
            </Array>
          </mxGeometry>
        </mxCell>
        <mxCell id="yj4hxWxQVgTyFjm1ZIjk-26" value="Ya" style="edgeLabel;html=1;align=center;verticalAlign=middle;resizable=0;points=[];fontSize=20;" parent="yj4hxWxQVgTyFjm1ZIjk-25" vertex="1" connectable="0">
          <mxGeometry x="0.1635" y="1" relative="1" as="geometry">
            <mxPoint y="-1" as="offset" />
          </mxGeometry>
        </mxCell>
        <mxCell id="yj4hxWxQVgTyFjm1ZIjk-27" style="edgeStyle=orthogonalEdgeStyle;rounded=0;orthogonalLoop=1;jettySize=auto;html=1;entryX=0.5;entryY=1;entryDx=0;entryDy=0;fontSize=12;startSize=8;endSize=8;exitX=0.5;exitY=1;exitDx=0;exitDy=0;strokeWidth=2;endArrow=block;endFill=1;" parent="1" source="s51fXqzdxu3SoiSa7u-e-3" target="MIV511B591KRfzBowYcn-8" edge="1">
          <mxGeometry relative="1" as="geometry">
            <mxPoint x="1399.25" y="1717.7500000000005" as="sourcePoint" />
            <mxPoint x="219" y="966" as="targetPoint" />
            <Array as="points">
              <mxPoint x="1404" y="1755" />
              <mxPoint x="-60" y="1755" />
            </Array>
          </mxGeometry>
        </mxCell>
        <mxCell id="yj4hxWxQVgTyFjm1ZIjk-32" value="Tidak" style="edgeLabel;html=1;align=center;verticalAlign=middle;resizable=0;points=[];fontSize=20;" parent="yj4hxWxQVgTyFjm1ZIjk-27" vertex="1" connectable="0">
          <mxGeometry x="-0.4237" relative="1" as="geometry">
            <mxPoint as="offset" />
          </mxGeometry>
        </mxCell>
        <mxCell id="s51fXqzdxu3SoiSa7u-e-5" style="edgeStyle=orthogonalEdgeStyle;rounded=0;orthogonalLoop=1;jettySize=auto;html=1;entryX=0;entryY=0.5;entryDx=0;entryDy=0;fontSize=12;startSize=8;endSize=8;exitX=0.5;exitY=1;exitDx=0;exitDy=0;strokeWidth=2;" parent="1" source="yj4hxWxQVgTyFjm1ZIjk-19" target="s51fXqzdxu3SoiSa7u-e-3" edge="1">
          <mxGeometry relative="1" as="geometry" />
        </mxCell>
        <mxCell id="s51fXqzdxu3SoiSa7u-e-9" value="&lt;font style=&quot;font-size: 20px;&quot;&gt;Tidak&lt;/font&gt;" style="edgeLabel;html=1;align=center;verticalAlign=middle;resizable=0;points=[];fontSize=12;" parent="s51fXqzdxu3SoiSa7u-e-5" vertex="1" connectable="0">
          <mxGeometry x="-0.2892" y="1" relative="1" as="geometry">
            <mxPoint as="offset" />
          </mxGeometry>
        </mxCell>
        <mxCell id="yj4hxWxQVgTyFjm1ZIjk-19" value="&lt;span style=&quot;font-size: 20px;&quot;&gt;Apakah&amp;nbsp;&lt;/span&gt;&lt;span style=&quot;font-size: 20px; background-color: initial;&quot;&gt;kelembapan&amp;nbsp;&lt;/span&gt;&lt;div&gt;&lt;div&gt;&lt;span style=&quot;font-size: 20px;&quot;&gt;dibawah 55% dan&amp;nbsp;&lt;/span&gt;&lt;/div&gt;&lt;div&gt;&lt;span style=&quot;font-size: 20px;&quot;&gt;suhu diatas&amp;nbsp;&lt;/span&gt;&lt;span style=&quot;font-size: 20px; background-color: initial;&quot;&gt;30%?&lt;/span&gt;&lt;/div&gt;&lt;/div&gt;" style="rhombus;whiteSpace=wrap;html=1;strokeWidth=2;" parent="1" vertex="1">
          <mxGeometry x="944" y="1100.75" width="352.5" height="281" as="geometry" />
        </mxCell>
        <mxCell id="yj4hxWxQVgTyFjm1ZIjk-21" value="Matikan Pompa DC Mini&amp;nbsp;&lt;div&gt;dan Buzzer&lt;/div&gt;" style="rounded=0;whiteSpace=wrap;html=1;fontSize=20;strokeWidth=2;" parent="1" vertex="1">
          <mxGeometry x="1042" y="878.25" width="276.75" height="102" as="geometry" />
        </mxCell>
        <mxCell id="s51fXqzdxu3SoiSa7u-e-6" style="edgeStyle=orthogonalEdgeStyle;rounded=0;orthogonalLoop=1;jettySize=auto;html=1;entryX=1;entryY=0.5;entryDx=0;entryDy=0;fontSize=12;startSize=8;endSize=8;strokeWidth=2;" parent="1" source="s51fXqzdxu3SoiSa7u-e-3" target="yj4hxWxQVgTyFjm1ZIjk-21" edge="1">
          <mxGeometry relative="1" as="geometry">
            <Array as="points">
              <mxPoint x="1996" y="1576" />
              <mxPoint x="1996" y="929" />
            </Array>
          </mxGeometry>
        </mxCell>
        <mxCell id="s51fXqzdxu3SoiSa7u-e-7" value="Ya" style="edgeLabel;html=1;align=center;verticalAlign=middle;resizable=0;points=[];fontSize=20;" parent="s51fXqzdxu3SoiSa7u-e-6" vertex="1" connectable="0">
          <mxGeometry x="-0.8117" y="6" relative="1" as="geometry">
            <mxPoint as="offset" />
          </mxGeometry>
        </mxCell>
        <mxCell id="s51fXqzdxu3SoiSa7u-e-3" value="&lt;span style=&quot;font-size: 20px;&quot;&gt;Apakah&amp;nbsp;&lt;/span&gt;&lt;span style=&quot;font-size: 20px; background-color: initial;&quot;&gt;kelembapan&amp;nbsp;&lt;/span&gt;&lt;div&gt;&lt;div&gt;&lt;span style=&quot;font-size: 20px;&quot;&gt;dibawah 55% dan&amp;nbsp;&lt;/span&gt;&lt;/div&gt;&lt;div&gt;&lt;span style=&quot;font-size: 20px;&quot;&gt;suhu dibawah&amp;nbsp;&lt;/span&gt;&lt;span style=&quot;font-size: 20px; background-color: initial;&quot;&gt;30%?&lt;/span&gt;&lt;/div&gt;&lt;/div&gt;" style="rhombus;whiteSpace=wrap;html=1;strokeWidth=2;" parent="1" vertex="1">
          <mxGeometry x="1228" y="1436" width="352.5" height="281" as="geometry" />
        </mxCell>
      </root>
    </mxGraphModel>
  </diagram>
</mxfile>
